<svg width="301" height="200" viewBox="0 0 301 200" fill="none" xmlns="http://www.w3.org/2000/svg">
<g opacity="0.95" filter="url(#filter0_d_1032_12112)">
<path d="M112.024 88.8056L81.2388 131.432C80.3404 132.799 81.2679 134.576 82.9683 134.751L143.71 140.786L112.024 88.8056ZM83.05 116.251L105.009 82.7954L82.6562 70.2227C81.8775 69.7852 80.8888 70.3102 80.8888 71.1606V115.679C80.8888 116.781 82.4317 117.191 83.05 116.251ZM86.2116 145.828L142.911 169.798C144.457 170.468 146.221 169.407 146.221 167.813V149.856L86.8533 143.758C85.5554 143.622 85.0362 145.287 86.2116 145.828ZM109.9 75.3415L133.213 36.2563C134.479 34.3258 132.166 32.0863 130.069 33.2102L86.0833 60.1739C85.3629 60.6168 85.3862 61.6122 86.1212 62.0278L109.9 75.3415ZM150.888 78.1251H182.74L154.863 32.0836C153.95 30.6945 152.419 30 150.888 30C149.357 30 147.825 30.6945 146.912 32.0836L119.035 78.1251H150.888ZM219.119 70.2227L196.766 82.7981L218.726 116.253C219.341 117.194 220.887 116.784 220.887 115.679V71.1606C220.887 70.3102 219.898 69.7852 219.119 70.2227ZM191.875 75.3415L215.655 62.0251C216.392 61.6094 216.413 60.6141 215.692 60.1711L171.707 33.2102C169.61 32.0863 167.297 34.3258 168.563 36.2563L191.875 75.3415ZM214.922 143.758L155.554 149.853V167.81C155.554 169.407 157.319 170.465 158.865 169.795L215.564 145.826C216.74 145.287 216.22 143.622 214.922 143.758ZM189.752 88.8056L158.069 140.786L218.81 134.751C220.511 134.574 221.438 132.799 220.54 131.432L189.752 88.8056ZM150.888 86.8751H121.596L150.888 134.932L180.18 86.8751H150.888Z" fill="black"/>
</g>
<defs>
<filter id="filter0_d_1032_12112" x="0.888771" y="-50" width="300" height="300.002" filterUnits="userSpaceOnUse" color-interpolation-filters="sRGB">
<feFlood flood-opacity="0" result="BackgroundImageFix"/>
<feColorMatrix in="SourceAlpha" type="matrix" values="0 0 0 0 0 0 0 0 0 0 0 0 0 0 0 0 0 0 127 0" result="hardAlpha"/>
<feOffset/>
<feGaussianBlur stdDeviation="40"/>
<feColorMatrix type="matrix" values="0 0 0 0 0 0 0 0 0 0.46 0 0 0 0 1 0 0 0 1 0"/>
<feBlend mode="normal" in2="BackgroundImageFix" result="effect1_dropShadow_1032_12112"/>
<feBlend mode="normal" in="SourceGraphic" in2="effect1_dropShadow_1032_12112" result="shape"/>
</filter>
</defs>
</svg>
